<svg width="16" height="16" viewBox="0 0 16 16" fill="none" xmlns="http://www.w3.org/2000/svg">
  <path fill-rule="evenodd" clip-rule="evenodd" d="M10.0837 2C9.20912 2 8.50033 2.70904 8.50033 3.5835C8.50033 4.45795 9.20912 5.16699 10.0837 5.16699C10.9582 5.16699 11.667 4.45795 11.667 3.5835C11.667 2.70904 10.9582 2 10.0837 2ZM9.66699 3.5835C9.66699 3.3532 9.85363 3.16667 10.0837 3.16667C10.3137 3.16667 10.5003 3.3532 10.5003 3.5835C10.5003 3.81379 10.3137 4.00033 10.0837 4.00033C9.85363 4.00033 9.66699 3.81379 9.66699 3.5835Z" fill="#161617"/>
  <path fill-rule="evenodd" clip-rule="evenodd" d="M1.66699 11.5C1.66699 10.1193 2.78628 9 4.16699 9C5.5477 9 6.66699 10.1193 6.66699 11.5C6.66699 12.8807 5.5477 14 4.16699 14C2.78628 14 1.66699 12.8807 1.66699 11.5ZM4.16699 10.1667C3.43061 10.1667 2.83366 10.7636 2.83366 11.5C2.83366 12.2364 3.43061 12.8333 4.16699 12.8333C4.90337 12.8333 5.50033 12.2364 5.50033 11.5C5.50033 10.7636 4.90337 10.1667 4.16699 10.1667Z" fill="#161617"/>
  <path fill-rule="evenodd" clip-rule="evenodd" d="M9.33366 11.5C9.33366 10.1193 10.4529 9 11.8337 9C13.2144 9 14.3337 10.1193 14.3337 11.5C14.3337 12.8807 13.2144 14 11.8337 14C10.4529 14 9.33366 12.8807 9.33366 11.5ZM11.8337 10.1667C11.0973 10.1667 10.5003 10.7636 10.5003 11.5C10.5003 12.2364 11.0973 12.8333 11.8337 12.8333C12.57 12.8333 13.167 12.2364 13.167 11.5C13.167 10.7636 12.57 10.1667 11.8337 10.1667Z" fill="#161617"/>
  <path fill-rule="evenodd" clip-rule="evenodd" d="M4.63854 2.41141L6.88133 3.7555C7.37911 4.05381 7.54102 4.69903 7.24306 5.19702L5.90064 7.44068C5.60238 7.93917 4.95636 8.10127 4.45808 7.80266L2.21546 6.45868C1.71772 6.16039 1.55579 5.51521 1.85369 5.01723L3.19595 2.77347C3.49418 2.27493 4.14024 2.11278 4.63854 2.41141ZM4.13786 3.47149L2.91407 5.51722L4.95877 6.74259L6.18272 4.69695L4.13786 3.47149Z" fill="#161617"/>
  <path d="M9.101 5.67227C9.00668 5.48462 8.81877 5.36216 8.60901 5.35165C8.39925 5.34113 8.20003 5.44419 8.08742 5.62147L6.35886 8.3426C6.21165 8.57434 6.24596 8.87736 6.44125 9.07032C7.04501 9.66689 7.41806 10.4936 7.41806 11.4086C7.41806 11.5825 7.4046 11.7529 7.37876 11.9189C7.32922 12.2372 7.54711 12.5354 7.86544 12.585C8.18378 12.6345 8.482 12.4166 8.53155 12.0983C8.56659 11.8732 8.58472 11.6428 8.58472 11.4086C8.58472 10.3407 8.20835 9.36001 7.58195 8.593L8.58035 7.02131C9.1104 7.69287 9.8191 8.19264 10.7332 8.48912C11.0396 8.58852 11.3686 8.42067 11.468 8.11423C11.5674 7.80778 11.3996 7.47877 11.0931 7.37937C10.1444 7.07165 9.51605 6.498 9.101 5.67227Z" fill="#161617"/>
</svg>
