<?xml version="1.0" encoding="UTF-8"?>
<svg width="96px" height="96px" viewBox="0 0 96 96" version="1.1" xmlns="http://www.w3.org/2000/svg" xmlns:xlink="http://www.w3.org/1999/xlink">
    <title>Delivery Fee light</title>
    <g id="Delivery-Fee-light" stroke="none" stroke-width="1" fill="none" fill-rule="evenodd">
        <g id="Group" transform="translate(0.628571, 10.914306)" fill="#000000" fill-rule="nonzero">
            <path d="M34.3367326,55.2285507 C35.6779955,55.2285507 36.765304,56.3158592 36.765304,57.6571221 C36.765304,64.7043099 30.5431366,70.3714078 22.9017697,70.3714078 C15.2604028,70.3714078 9.03823538,64.7043099 9.03823538,57.6571221 C9.03823538,56.3158592 10.1255438,55.2285507 11.4668068,55.2285507 C12.8080698,55.2285507 13.8953782,56.3158592 13.8953782,57.6571221 C13.8953782,61.9691812 17.9118811,65.514265 22.9017697,65.514265 C27.8916583,65.514265 31.9081611,61.9691812 31.9081611,57.6571221 C31.9081611,56.3158592 32.9954696,55.2285507 34.3367326,55.2285507 Z M41.1970606,3.80000231 L64.5323647,3.9131295 C70.5685312,4.55359845 72.2916441,12.7358324 68.067516,16.5439583 L67.6252185,16.9097492 L67.2256737,16.9979183 L67.7269774,18.3765847 L68.3779515,20.0599908 C68.8524302,21.2591105 69.4064966,22.6087386 70.0317254,24.0897372 L71.0218871,26.4073709 L72.3915027,29.5401069 L72.9790996,31.1292287 L73.1122078,31.133581 C79.0496356,31.370486 84.6294019,33.9336587 88.5128396,38.176955 L89.2207785,38.9921042 L89.7609668,39.6771989 C91.7913438,42.3699854 91.1367836,46.5228914 88.3511635,48.387527 C87.5621282,48.9153161 86.5627515,49.2874864 85.6030565,49.1921573 C86.6011148,51.1815064 87.1276353,53.382812 87.1276353,55.6597792 C87.1276353,63.7890829 80.4199402,70.3714078 72.15428,70.3714078 C63.8886198,70.3714078 57.1809247,63.7890829 57.1809247,55.6597792 C57.1809247,47.5304756 63.8886198,40.9481506 72.15428,40.9481506 C75.5680214,40.9481506 78.8095403,42.0751208 81.3735695,44.0811352 C81.5945741,44.1540481 81.806397,44.2642054 82.0034064,44.4081898 C82.6853018,44.9065537 84.8468817,44.8879613 85.6499926,44.3507571 C86.1036101,44.047115 86.2415107,43.0772607 85.8832037,42.602056 C83.1118893,38.9291161 78.7688078,36.5509609 74.0246967,36.0652285 L73.0708742,35.9934914 L72.0918598,35.9768657 L71.6209112,36.002567 C70.8854086,36.0282116 70.1869801,35.7194097 69.7069708,35.1703909 L69.4860074,34.8762997 L69.3194438,34.5672211 L67.9531361,31.5130721 L66.5231445,28.2425069 L65.1468135,25.0050185 L63.919901,21.9974549 C62.9429365,19.5347405 62.2718267,17.6392351 61.9294243,16.3542028 C61.6260697,15.2157163 62.1846235,14.0503139 63.2117314,13.547322 L63.5709149,13.4051373 L63.9352692,13.3243826 C65.6954774,13.0748679 66.0724162,9.86435245 64.8178049,8.97417843 L64.5238964,8.82086697 L64.265651,8.75669333 L55.6148571,8.51880946 L55.6180254,32.0265242 C55.6180254,36.638631 53.7694431,40.2555232 50.3403668,42.6708023 L49.6335577,43.1377754 L49.0036648,43.5068505 C47.1653357,44.5254244 44.949465,45.2317299 42.9779389,45.5058152 L42.015417,45.6062842 L41.3907839,45.6301581 L33.7895256,45.6301581 C32.7160327,45.6301581 31.7913559,44.9294303 31.4749121,43.932491 L31.3856539,43.545544 L31.3609542,43.2015867 L31.3609542,39.8605273 C31.3609542,36.6453013 29.5323639,32.7623726 27.9448656,32.3166828 L27.6505402,32.2743983 L11.4868741,32.1774661 C10.5150282,33.6280518 9.66170562,36.4270493 9.40229167,38.9314975 L9.33846908,39.7531506 L9.11885714,50.0856936 L52.6326732,50.0856936 C53.7061661,50.0856936 54.6308429,50.7864214 54.9472867,51.7833607 L55.0365449,52.1703077 L55.0612446,52.514265 C55.0612446,53.5877579 54.3605167,54.5124348 53.3635775,54.8288786 L52.9766304,54.9181368 L52.6326732,54.9428364 L6.89282166,54.9428364 C5.81932875,54.9428364 4.89465189,54.2421086 4.57820807,53.2451693 L4.48894986,52.8582223 L4.46425023,52.514265 L4.46425023,40.4104373 C4.46425023,37.5914196 5.15313828,34.2941348 6.398326,31.938117 C5.16105577,31.4295593 4.24145353,30.351437 3.92165541,29.0429784 L3.83039798,28.542172 L3.8,28.0334195 L3.8,19.3751771 C3.8,17.3563081 5.20102689,15.6511247 7.12412589,15.2317266 L7.57678545,15.1582095 L8.02924307,15.1341983 L31.8718107,15.1341983 C33.8844879,15.1341983 35.5855399,16.5450765 36.003854,18.4707965 L36.0771755,18.9239247 L36.1010538,19.3751771 L36.1010538,28.0334195 C36.1010538,29.625756 35.2251659,31.0587729 33.9262955,31.504595 C35.1048454,33.4137495 35.8825847,35.8194657 36.1318015,38.2231164 L36.2058778,39.2516722 L36.2180967,39.8609052 L36.0161044,40.770265 L41.3748336,40.7730676 C42.4125202,40.7662522 43.9607666,40.4246457 45.3492749,39.8706232 L46.0271144,39.5764772 L46.6496331,39.2582777 C48.9915997,37.9606505 50.3289368,36.0807795 50.6719046,33.4566633 L50.7407953,32.7224212 L50.7608826,32.0265513 L50.9576124,8.86283639 L41.1070356,8.85764359 C40.8987827,8.84883263 40.7338599,8.83465506 40.578334,8.80868586 L40.3478509,8.7600852 L39.9954408,8.64307905 C38.2800503,7.94763385 37.9610486,5.82472677 39.1844487,4.61456211 L39.4942181,4.35256105 L39.9904933,4.07333122 L40.1328416,4.01245034 L40.6427603,3.86298442 L41.1970606,3.80000231 Z M72.15428,45.8052935 C66.5631388,45.8052935 62.0380676,50.2218591 62.0380676,55.6597792 C62.0380676,61.0976993 66.5631388,65.514265 72.15428,65.514265 C77.7454212,65.514265 82.2704924,61.0976993 82.2704924,55.6597792 C82.2704924,50.2218591 77.7454212,45.8052935 72.15428,45.8052935 Z M8.65714286,19.7885507 L8.45714286,27.4159793 L31.2422857,27.6159793 L31.24,19.988 L8.65714286,19.7885507 Z" id="Shape"></path>
        </g>
    </g>
</svg>