<?xml version="1.0" encoding="UTF-8"?>
<svg width="96px" height="96px" viewBox="0 0 96 96" version="1.1" xmlns="http://www.w3.org/2000/svg" xmlns:xlink="http://www.w3.org/1999/xlink">
    <title>Near me light</title>
    <g id="Near-me-light" stroke="none" stroke-width="1" fill="none" fill-rule="evenodd">
        <path d="M71.2524613,72.2810924 C78.1381242,66.5132111 82.474491,57.2411053 82.474491,48 C82.474491,30.5834599 68.6718223,16.2612239 50.4797811,16.2612239 L50.4797811,47.3500574 L71.2524613,72.2810924 Z" id="Path-Copy" fill-opacity="0.15" fill="#000000"></path>
        <path d="M51.3369239,13.6897953 L51.3372829,13.7824645 C69.5454199,15.099399 83.9083525,30.2887044 83.9083525,48.8326525 C83.9083525,58.2144307 80.2320685,66.7375669 74.241481,73.0400806 L74.2764319,73.0779293 L73.3022957,73.9914888 C72.973869,74.3118454 72.6391931,74.6258249 72.2984681,74.9332273 L72.2659491,74.9624997 C72.2351344,74.9902303 72.2042757,75.0179029 72.1733731,75.0455173 C72.0972321,75.1135912 72.0205811,75.1814918 71.9436324,75.2490615 C71.8841302,75.3012832 71.8248096,75.3530255 71.7653329,75.4045562 C71.6952522,75.4652895 71.6245609,75.5260451 71.5536261,75.5865236 C71.3322743,75.7752672 71.1090793,75.9608828 70.883823,76.1435728 C70.8333565,76.1844001 70.7833383,76.2247312 70.7332076,76.2649277 C70.6455698,76.3353329 70.5569356,76.4057226 70.4679919,76.4756635 C70.4171981,76.5154383 70.3665344,76.5550455 70.3157597,76.5945166 C70.2380503,76.6551195 70.1600345,76.7152562 70.0817873,76.7750504 C70.0068992,76.8320519 69.9318511,76.8889166 69.8565684,76.945486 C69.7902731,76.9955555 69.7236031,77.0452935 69.6567704,77.0947853 C69.5770538,77.1535427 69.4970042,77.2122924 69.4166977,77.2707102 C69.3572479,77.3142501 69.2979188,77.3571298 69.2384655,77.3998175 C69.1503913,77.4627467 69.0619527,77.5256239 68.9732119,77.5881008 C68.9142772,77.6299119 68.8549617,77.6714016 68.7955267,77.7127021 C68.7113513,77.7708727 68.6270158,77.8289314 68.5424154,77.8866301 C68.4718855,77.9350502 68.4012822,77.9828253 68.3305159,78.030336 C68.2581304,78.0786253 68.1853988,78.1270677 68.112477,78.1752455 C68.0306309,78.2296133 67.9483843,78.2834513 67.8659247,78.3369353 C67.8115883,78.3719058 67.7577672,78.4066104 67.7038456,78.4411717 C67.5820004,78.5195175 67.4585466,78.5975526 67.3346318,78.6747999 C67.3074362,78.6915569 67.2804111,78.7083577 67.2533616,78.7251228 C67.1414791,78.7946323 67.0291944,78.8633322 66.9165409,78.9313881 C66.8579664,78.9666716 66.7992689,79.0019116 66.7404603,79.0369847 C66.6573602,79.0865988 66.5737931,79.135948 66.4900289,79.1849451 C66.4069264,79.2335707 66.3238861,79.2817109 66.2406314,79.32952 C66.2011281,79.3521258 66.1614753,79.3747813 66.1217796,79.3973584 C65.9977354,79.468053 65.8732959,79.5378676 65.7483911,79.6069439 C65.7040331,79.6312273 65.6593802,79.6557789 65.6146748,79.6802322 C65.5239994,79.7301455 65.4332212,79.7793142 65.3422032,79.8280936 C65.269262,79.8667688 65.1962669,79.9055273 65.1231365,79.9440259 C60.6613625,82.2952516 55.6321299,83.7143492 50.2944922,83.9428456 C50.1058846,83.9502878 49.9174535,83.9570415 49.728749,83.9623115 L50.2385591,83.9451959 C50.0984276,83.950974 49.9580843,83.9559315 49.8175339,83.9600638 L49.728749,83.9623115 L49.656402,83.9644371 C49.3603276,83.9718043 49.0633442,83.9755096 48.7654954,83.9755096 C29.3566313,83.9755096 13.6226382,68.2415165 13.6226382,48.8326525 C13.6226382,29.4237884 29.3566313,13.6897953 48.7654954,13.6897953 L48.7654954,13.6897953 L51.3369239,13.6897953 Z M46.1931429,18.9428571 L45.2717192,19.0339206 C45.2087115,19.0412285 45.1457632,19.0487316 45.0828751,19.0564292 C44.7347492,19.0990402 44.3884029,19.1476245 44.0440056,19.202069 C43.8517602,19.2324611 43.660236,19.2646589 43.4693368,19.2986624 C43.4035845,19.3103742 43.337855,19.3223097 43.2722004,19.334459 L43.4693368,19.2986624 C43.3021079,19.3284495 43.1353585,19.3596223 42.969101,19.3921683 L43.2722004,19.334459 C43.1385077,19.3591988 43.0051261,19.384825 42.8720617,19.4113313 L42.969101,19.3921683 C42.8297946,19.4194384 42.6908335,19.4476727 42.5522249,19.4768638 L42.8720617,19.4113313 C42.6714891,19.4512853 42.4716373,19.4932391 42.2725282,19.537171 L42.5522249,19.4768638 C42.4125115,19.5062877 42.2731563,19.5366837 42.1341666,19.5680445 L42.2725282,19.537171 C42.1113925,19.5727243 41.9507433,19.6095731 41.7905918,19.6477061 L42.1341666,19.5680445 C41.9923708,19.6000385 41.8509554,19.6330367 41.7099284,19.6670311 L41.7905918,19.6477061 C41.6603563,19.6787158 41.53045,19.7105748 41.4008791,19.7432766 L41.7099284,19.6670311 C41.5318485,19.7099572 41.3543878,19.7544717 41.1775622,19.8005591 L41.4008791,19.7432766 C41.2765531,19.7746548 41.152536,19.806809 41.0288331,19.8397339 L41.1775622,19.8005591 C41.0298512,19.8390581 40.8825832,19.8786546 40.7357677,19.9193393 L41.0288331,19.8397339 C40.8771194,19.8801142 40.7258784,19.9216536 40.5751202,19.9643422 L40.7357677,19.9193393 C40.5777064,19.9631404 40.4201694,20.0082028 40.2631683,20.0545151 L40.5751202,19.9643422 C40.4240012,20.0071329 40.2733673,20.0510782 40.1232286,20.096168 L40.2631683,20.0545151 C40.1379924,20.0914395 40.0131572,20.1291584 39.8886685,20.167666 L40.1232286,20.096168 C39.9736159,20.1410998 39.824495,20.187168 39.6758758,20.2343627 L39.8886685,20.167666 C39.7374953,20.2144277 39.5868329,20.2623525 39.4366919,20.3114298 L39.6758758,20.2343627 C39.5270997,20.2816073 39.3788265,20.3299806 39.2310661,20.3794727 L39.4366919,20.3114298 C39.3146317,20.3513281 39.1929162,20.3919882 39.0715508,20.4334044 L39.2310661,20.3794727 C38.896202,20.491635 38.563972,20.6095431 38.2344932,20.7330801 C38.0064481,20.8185803 37.7792467,20.9069683 37.5534078,20.9980251 C37.4974728,21.020578 37.4417269,21.0432513 37.3860649,21.0660871 L37.5534078,20.9980251 C37.4043697,21.0581163 37.255925,21.1193698 37.1080849,21.1817744 L37.3860649,21.0660871 C37.2506076,21.1216596 37.1156469,21.1781945 36.9811913,21.2356832 L37.1080849,21.1817744 C36.9815861,21.2351706 36.8555299,21.2894095 36.7299235,21.3444842 L36.9811913,21.2356832 C36.8186057,21.3051995 36.6567587,21.3761105 36.4956653,21.4484013 L36.7299235,21.3444842 C36.5885465,21.4064737 36.4477393,21.469522 36.3075117,21.5336189 L36.4956653,21.4484013 C36.3620834,21.5083463 36.2290197,21.56924 36.0964827,21.6310738 L36.3075117,21.5336189 C36.1749552,21.5942095 36.0429168,21.6557371 35.9114048,21.7181934 L36.0964827,21.6310738 C35.965698,21.6920902 35.8354263,21.754022 35.7056757,21.816861 L35.9114048,21.7181934 C35.7642779,21.7880653 35.61781,21.8590995 35.4720129,21.9312841 L35.7056757,21.816861 C35.5782708,21.8785639 35.4513684,21.9411416 35.3249763,22.0045862 L35.4720129,21.9312841 C35.3278919,22.0026388 35.1844264,22.0751176 35.0416278,22.148709 L35.3249763,22.0045862 C35.1994031,22.0676198 35.0743336,22.1315091 34.9497754,22.1962464 L35.0416278,22.148709 C34.9140511,22.2144557 34.7870067,22.2810906 34.6605029,22.3486053 L34.9497754,22.1962464 C34.7969456,22.2756775 34.6448856,22.3563854 34.4936096,22.4383558 L34.6605029,22.3486053 C34.5567408,22.4039828 34.4533424,22.4599522 34.3503122,22.5165091 L34.4936096,22.4383558 C34.2330981,22.5795166 33.9749117,22.7244217 33.7191225,22.872999 C33.6418968,22.9178555 33.5647425,22.9631341 33.4878094,23.0087467 L33.7191225,22.872999 C33.1345382,23.2125595 32.5624749,23.5713001 32.0037941,23.9483592 C31.9463547,23.9871259 31.8891372,24.0260311 31.8320617,24.0651285 L32.0037941,23.9483592 C31.9071005,24.0136187 31.8108077,24.0794269 31.7149202,24.1457794 L31.8320617,24.0651285 C31.7117844,24.1475198 31.5921378,24.2307644 31.4731304,24.3148536 L31.7149202,24.1457794 C31.5557132,24.2559479 31.3976237,24.3676168 31.240672,24.4807657 L31.4731304,24.3148536 C31.3600465,24.3947574 31.2475398,24.4754238 31.1356179,24.5568454 L31.240672,24.4807657 C31.1266464,24.5629685 31.0132214,24.6459524 30.9004048,24.7297096 L31.1356179,24.5568454 C31.0168579,24.6432416 30.8987562,24.730488 30.7813219,24.8185757 L30.9004048,24.7297096 C30.8017035,24.8029874 30.7034679,24.8768571 30.6057032,24.9513134 L30.7813219,24.8185757 C30.5299093,25.0071607 30.2815552,25.1996017 30.0363474,25.3958109 C29.9892115,25.4335272 29.9419596,25.4715708 29.8948257,25.5097544 L30.0363474,25.3958109 C29.9176445,25.4907941 29.7996789,25.5866603 29.6824605,25.6833995 L29.8948257,25.5097544 C29.7795801,25.6031159 29.6650402,25.6973144 29.5512153,25.7923405 L29.6824605,25.6833995 C29.2492749,26.0409039 28.8262948,26.4103321 28.4140226,26.7911819 C27.9646721,27.2062843 27.5280516,27.6349452 27.1048017,28.0765232 C27.051256,28.1323907 26.9984974,28.1878578 26.9459496,28.2435259 L27.1048017,28.0765232 C27.0177148,28.1673813 26.9311939,28.2587863 26.8452447,28.3507325 L26.9459496,28.2435259 C26.8422352,28.3533986 26.7393417,28.4640545 26.6372787,28.5754837 L26.8452447,28.3507325 C26.7259653,28.4783345 26.6077871,28.6069788 26.4907251,28.7366503 L26.6372787,28.5754837 C26.5493813,28.6714474 26.4620999,28.7679846 26.3754407,28.8650892 L26.4907251,28.7366503 C26.3952556,28.8424034 26.3005286,28.9488397 26.2065522,29.055951 L26.3754407,28.8650892 C26.2665854,28.9870654 26.1587119,29.1099367 26.0518327,29.2336908 L26.2065522,29.055951 C26.110397,29.1655457 26.0150276,29.2758471 25.9204529,29.3868463 L26.0518327,29.2336908 C25.9620113,29.3376938 25.8728922,29.4423203 25.7844827,29.5475628 L25.9204529,29.3868463 C25.8223984,29.5019296 25.7251982,29.6177631 25.628862,29.7343369 L25.7844827,29.5475628 C25.6760647,29.6766235 25.5687138,29.8066106 25.4624437,29.9375105 L25.628862,29.7343369 C25.5426558,29.8386525 25.4571416,29.943561 25.3723262,30.0490553 L25.4624437,29.9375105 C25.1146082,30.3659626 24.7783512,30.8041947 24.4541491,31.2517304 C24.3299668,31.4231541 24.207541,31.5959604 24.0869111,31.7701052 C23.9793387,31.9253985 23.8731323,32.0818495 23.7683747,32.2393471 C23.5769328,32.5271746 23.3904421,32.8183149 23.2088999,33.1128304 C23.1521963,33.2048193 23.0958809,33.2972947 23.0400535,33.3900968 L23.2088999,33.1128304 C23.0404766,33.3860633 22.8763124,33.6622012 22.7164999,33.9411516 C22.5230433,34.2788234 22.3358904,34.6207564 22.1552837,34.9666495 C22.1328682,35.0095799 22.1106611,35.052363 22.0885541,35.0952061 L22.1552837,34.9666495 C22.0355425,35.1959748 21.9186787,35.4270408 21.8047404,35.6597997 C21.758545,35.754172 21.7129389,35.8485951 21.6678145,35.9432921 L21.500331,36.3008377 C21.4683538,36.3702948 21.4366343,36.439895 21.4051736,36.5096371 C21.3404533,36.6531142 21.2769884,36.7968214 21.2146239,36.9411154 C21.183896,37.0122093 21.1533349,37.0836829 21.1230441,37.1552986 L20.9677219,37.5295922 C20.9413621,37.594354 20.915222,37.6592285 20.8893025,37.724215 C20.8555795,37.8087675 20.8222501,37.8934579 20.7892958,37.9783355 L20.8893025,37.724215 C20.8367175,37.856059 20.7850406,37.9883636 20.7342798,38.1211212 L20.7892958,37.9783355 C20.7326886,38.1241336 20.6771884,38.270484 20.6228053,38.4173765 L20.7342798,38.1211212 C20.6723773,38.2830182 20.611837,38.4455888 20.552673,38.6088189 L20.6228053,38.4173765 C20.5783468,38.5374618 20.534635,38.6579093 20.4916755,38.7787134 L20.552673,38.6088189 C20.5044897,38.7417538 20.4572193,38.8751261 20.4108692,39.0089284 L20.4916755,38.7787134 C20.3828253,39.0848051 20.2788046,39.3931862 20.1797053,39.703765 C20.1643013,39.7520434 20.1491312,39.8000082 20.1340786,39.848025 L20.1797053,39.703765 C20.130686,39.8573922 20.0828708,40.0115572 20.0362708,40.1662489 L20.1340786,39.848025 C20.0868778,39.9985917 20.040832,40.1496694 19.9959514,40.3012477 L20.0362708,40.1662489 C19.9937442,40.3074187 19.9522296,40.4490271 19.9117356,40.5910657 L19.9959514,40.3012477 C19.9506908,40.4541098 19.9066152,40.607481 19.8637354,40.7613507 L19.9117356,40.5910657 C19.7868593,41.0290868 19.6716879,41.4711985 19.5664687,41.9171536 C19.5580695,41.9527499 19.5496328,41.9888056 19.5412611,42.0248862 L19.5664687,41.9171536 C19.5166945,42.1281137 19.4691474,42.3399338 19.4238535,42.5525878 L19.3341401,42.9898191 C19.2924994,43.2007616 19.2530699,43.4124986 19.2158767,43.6250048 C19.1720485,43.8754373 19.131374,44.126617 19.0938385,44.3788213 C19.0609305,44.5999412 19.030455,44.8216927 19.0024167,45.0442032 C18.9912666,45.1326913 18.9805107,45.2212251 18.9701412,45.309877 L19.0024167,45.0442032 C18.9607866,45.3745772 18.9245291,45.7066244 18.8937345,46.0402544 C18.8885245,46.0966965 18.8834578,46.1533343 18.8785488,46.2100172 L18.8937345,46.0402544 C18.8814295,46.1735667 18.8699968,46.3071317 18.8594421,46.4409436 L18.8785488,46.2100172 C18.8629713,46.3898842 18.8489811,46.5702054 18.836592,46.7509667 L18.8594421,46.4409436 C18.8470999,46.5974171 18.8359582,46.7542282 18.8260264,46.9113678 L18.836592,46.7509667 C18.8258531,46.9076525 18.8163173,47.0646689 18.8079937,47.2220069 L18.8260264,46.9113678 C18.8157957,47.073235 18.8068487,47.2354507 18.7991954,47.3980049 L18.8079937,47.2220069 C18.8003533,47.3664324 18.7937343,47.5111288 18.7881439,47.656089 L18.7991954,47.3980049 C18.7768126,47.8734096 18.7654954,48.3517094 18.7654954,48.8326525 C18.7654954,65.401195 32.1969529,78.8326525 48.7654954,78.8326525 C49.0704235,78.8326525 49.3742891,78.8281031 49.6770279,78.8190686 C49.8067547,78.8152242 49.9362365,78.8105344 50.065566,78.8050217 L49.6770279,78.8190686 C49.855406,78.8137453 50.0333929,78.8068649 50.2109756,78.7984405 L50.065566,78.8050217 C50.6621608,78.7795919 51.2555123,78.7366537 51.8450096,78.6765397 C51.8721554,78.6737575 51.8992022,78.6709625 51.9262384,78.6681316 L51.8450096,78.6765397 C52.0030091,78.6604277 52.1607316,78.6430818 52.3181656,78.6245085 L51.9262384,78.6681316 C52.121938,78.6476402 52.3170777,78.6252674 52.511639,78.6010315 L52.3181656,78.6245085 C52.4924524,78.6039469 52.6663855,78.5818811 52.8399488,78.5583196 L52.511639,78.6010315 C52.7111711,78.5761764 52.9100948,78.5493619 53.1083903,78.5206078 L52.8399488,78.5583196 C52.9818912,78.5390507 53.1235863,78.5187815 53.2650254,78.4975167 L53.1083903,78.5206078 C53.2662735,78.4977137 53.4237585,78.47359 53.5808352,78.4482468 L53.2650254,78.4975167 C53.4750526,78.46594 53.6845154,78.4321682 53.8933851,78.3962166 L53.5808352,78.4482468 C53.7915024,78.4142571 54.0014353,78.3780737 54.2106096,78.3397208 C54.3378779,78.3165391 54.4650799,78.292379 54.5920479,78.2674094 L54.2106096,78.3397208 C54.430456,78.2994112 54.6494644,78.2567051 54.8676068,78.2116305 L54.5920479,78.2674094 C54.7497596,78.2363938 54.9071102,78.2041292 55.0640872,78.1706223 L54.8676068,78.2116305 C55.0465978,78.1746457 55.2250058,78.1360664 55.4028152,78.095908 L55.0640872,78.1706223 C55.2284984,78.1355287 55.3924997,78.0990724 55.5560768,78.0612614 L55.4028152,78.095908 C55.5794834,78.0560073 55.7555606,78.0145478 55.9310317,77.9715446 L55.5560768,78.0612614 C55.7106433,78.0255332 55.864831,77.9885953 56.0186278,77.9504544 L55.9310317,77.9715446 C56.0832769,77.9342335 56.2350658,77.8957604 56.3863885,77.8561351 L56.0186278,77.9504544 C56.1851363,77.9091611 56.3511866,77.8664576 56.5167632,77.8223525 L56.3863885,77.8561351 C60.2928614,76.8331885 63.8886239,75.0424311 67.0027075,72.6548315 L46.1940668,49.3524238 L46.1931429,18.9428571 Z M51.3371039,18.9413303 L51.336,47.3897143 L70.8023407,69.189131 C75.745207,63.8408712 78.7654954,56.6894749 78.7654954,48.8326525 C78.7654954,33.1303788 66.7018208,20.2457274 51.3371039,18.9413303 Z" id="Combined-Shape" fill="#000000" fill-rule="nonzero"></path>
    </g>
</svg>