<?xml version="1.0" encoding="UTF-8"?>
<svg width="96px" height="96px" viewBox="0 0 96 96" version="1.1" xmlns="http://www.w3.org/2000/svg" xmlns:xlink="http://www.w3.org/1999/xlink">
    <title>Rating light</title>
    <g id="Rating-light" stroke="none" stroke-width="1" fill="none" fill-rule="evenodd">
        <path d="M49.7947426,8.5725085 C56.7124112,8.45013149 61.3163342,17.0080251 60.435966,27.6655245 L60.2693247,29.3049238 L60.2365714,29.544 L60.9773846,29.4342196 C67.0994651,28.5831639 72.0586693,29.0492021 75.9040768,31.0154932 L76.6583222,31.428809 L77.3038987,31.83005 C82.3261549,35.1358544 83.6958611,39.7995359 81.7105454,44.4109729 L81.3908571,45.0857143 L81.4240153,45.124172 C84.6832179,49.033299 84.8415596,53.4486487 81.948548,57.3754304 L81.504,57.9428571 L81.7391494,58.3701859 C83.7994024,62.3758593 82.5023651,66.4627025 78.3312789,69.5151593 L77.6914286,69.9565714 L77.7030311,70.0535202 C78.0113337,74.3617515 75.7671753,77.9067538 71.2505152,79.6253733 L70.5898491,79.8583512 L69.9291437,80.0573128 C64.9637368,81.4340727 52.8017133,79.9154205 31.5153665,75.6185494 L27.4595348,74.7913497 C26.3110642,75.6019613 24.9412785,76.1199317 23.45868,76.2367585 L22.8166901,76.261951 L16.6320456,76.261951 C12.3657796,76.261951 8.87363036,72.9475628 8.59002464,68.7532132 L8.57142857,68.2013339 L8.57142857,43.233491 C8.57142857,38.967225 11.8858167,35.4750757 16.0801663,35.19147 L16.6320456,35.172874 L22.8166901,35.172874 C24.998725,35.172874 26.9782557,36.0398975 28.429567,37.4482293 C32.533927,34.3949762 35.5182127,31.6029813 37.3755893,29.135409 C38.0257898,28.2716011 38.570904,26.7457549 39.3992874,23.465063 L40.1405567,20.5082544 C41.9232481,13.6616708 43.4216683,10.7727269 47.5998469,9.08349796 L48.1362907,8.87839335 L48.9400965,8.58762761 L49.7947426,8.5725085 Z M74.4762917,36.1258175 C70.5287802,33.5274434 63.734447,33.5274434 54.093292,36.1258175 L54.5456098,33.2105671 C54.9485946,30.5267602 55.20358,28.5372839 55.3105662,27.2421383 C56.0977101,17.7131862 52.073112,13.6758648 49.8857081,13.7140142 C44.6053854,15.6246454 45.2285456,27.2542171 41.4845157,32.2282563 C39.5233571,34.8337054 36.641946,37.6109166 32.8402824,40.5598901 L31.5179218,41.5649381 L30.5388423,42.2846836 L29.5244847,43.0110136 L29.5244847,69.963956 L31.0118195,70.2687497 C47.0517268,73.5392842 58.1282058,75.2550563 64.2412565,75.4160659 L65.3840063,75.4276505 L65.8828118,75.4189579 C67.0125486,75.3879802 67.9032861,75.2821375 68.5550245,75.1014298 C72.5563948,73.9919687 73.5966847,71.3806027 71.6758942,67.2673318 C78.5293244,64.6307231 79.3599732,61.3766301 74.1678406,57.5050526 C80.3156778,53.6546322 80.4184948,49.7631964 74.4762917,45.830745 C78.4238032,41.9591675 78.4238032,38.7241917 74.4762917,36.1258175 Z M16.6320456,40.3157311 C15.1445678,40.3157311 13.9170643,41.4288133 13.7370192,42.8674934 L13.7142857,43.233491 L13.7142857,68.2013339 C13.7142857,69.6888117 14.8273679,70.9163153 16.266048,71.0963603 L16.6320456,71.1190938 L22.8166901,71.1190938 L23.1826877,71.0963603 C23.6209064,71.041519 24.0289161,70.8894948 24.3844623,70.6625423 L24.4836691,70.5963285 C25.1317357,70.1444128 25.5877721,69.4361824 25.7048423,68.6185732 L25.73445,68.2013339 L25.73445,43.233491 C25.73445,41.7460132 24.6213678,40.5185096 23.1826877,40.3384646 L22.8166901,40.3157311 L16.6320456,40.3157311 Z" id="Combined-Shape" fill="#000000" fill-rule="nonzero"></path>
    </g>
</svg>